<svg width="82" height="39" viewBox="0 0 82 39" fill="none" xmlns="http://www.w3.org/2000/svg">
<path fill-rule="evenodd" clip-rule="evenodd" d="M60 18.9938L60.0028 18.9956L61.0924 17.3185L41.0896 4.32288L40.9998 4.46112L40.91 4.32309L20.91 17.3231L21.9999 18.9999V19H26.9999V39H29H53H54H55V19H60V18.9938ZM53 37H29V17H26.9999H25.0769L41.0002 6.64985L56.9312 17H55H53V37ZM41.7348 22.8004L40.5 19L39.2651 22.8004H35.2691L38.502 25.1492L37.2671 28.9496L40.5 26.6008L43.7328 28.9496L42.498 25.1492L45.7308 22.8004H41.7348Z" fill="black"/>
<path fill-rule="evenodd" clip-rule="evenodd" d="M33 11L21.1041 3.3309L5.01586 14H7.00004H9.00004L9.00004 34H27L27 36H9.00004H8.00004H7.00004V16H2.00004H2.00001L0.894653 14.3332L20.9846 1.0103L21.0758 1.14786L21.1737 0.996155L34.0837 9.31903L33 11Z" fill="black"/>
<path fill-rule="evenodd" clip-rule="evenodd" d="M61.1795 0.999985L61.1375 1.06467L61.0728 0.955078L46.9828 9.27797L48 11L61.0423 3.2959L77.0211 13.6771H75.0899H73.0899V34H55V36H75V35.6771H75.0899V15.6771H80.0899V15.6709L80.0928 15.6727L81.1824 13.9956L61.1795 0.999985Z" fill="black"/>
</svg>
